Coordinates
version=1
nRows=6
nColumns=34
inDegrees=yes

Units are S.I. units (second, meters, Newtons, ...)
If the header above contains a line with 'inDegrees', this indicates whether rotational values are in degrees (yes) or radians (no).

endheader
time	pelvis_tilt	pelvis_list	pelvis_rotation	pelvis_tx	pelvis_ty	pelvis_tz	hip_flexion_r	hip_adduction_r	hip_rotation_r	knee_angle_r	ankle_angle_r	subtalar_angle_r	mtp_angle_r	hip_flexion_l	hip_adduction_l	hip_rotation_l	knee_angle_l	ankle_angle_l	subtalar_angle_l	mtp_angle_l	lumbar_extension	lumbar_bending	lumbar_rotation	arm_flex_r	arm_add_r	arm_rot_r	elbow_flex_r	pro_sup_r	arm_flex_l	arm_add_l	arm_rot_l	elbow_flex_l	pro_sup_l
      0.00000000	     -2.37424716	      0.89870269	     -4.07969217	      1.78296338	      0.87997749	     -0.16213062	      3.31883361	     -4.70281034	     -3.15463495	      3.72077769	      1.13366675	    -16.24146743	      0.00000000	      1.71671260	     -3.01826790	     -7.68380526	      3.24966563	      4.07426065	     -7.04398087	      0.00000000	    -11.45521978	     -0.59248555	     -3.76064641	     35.27480655	     13.10351435	     25.75041896	     91.63540394	     99.72627699	     24.71509824	     -0.66935425	     -0.53885195	     92.11407424	    104.01134545
      0.01666670	     -3.86706605	      0.75176112	     -3.99915759	      1.78462737	      0.88082222	     -0.16354991	      5.43271436	     -4.39064095	     -2.05879268	      4.84300251	      4.41100931	    -14.86611199	      0.00000000	      4.26355848	     -3.00416413	     -8.14017589	      4.01922309	      5.68307259	     -5.69782258	      0.00000000	     -9.60475493	      0.14533129	     -2.59314195	     34.82790167	     13.43313114	     24.98847792	     89.11753281	     99.57176647	     26.02936237	      0.86097606	     -1.48989136	     89.13341542	    102.88753602
      0.03333330	     -3.90518221	      1.27393174	     -4.15470240	      1.78533299	      0.88104736	     -0.16332300	      5.12011056	     -5.04955526	     -2.36336805	      4.08710191	      4.66277228	    -14.60254889	      0.00000000	      4.21324771	     -2.63875743	     -9.03716944	      3.63444629	      5.81004391	     -4.96811158	      0.00000000	     -9.28656337	     -0.63457218	     -1.50322129	     32.78223619	     12.69003112	     25.07959377	     90.40615848	     99.16787784	     28.18285575	      0.93832880	      1.01053984	     86.30667330	     96.23313303
      0.05000000	     -3.33873602	      1.50552196	     -4.13612880	      1.78572047	      0.88211335	     -0.16347426	      4.15753217	     -5.47331063	     -1.94204520	      3.49711417	      4.39597754	    -14.94045005	      0.00000000	      3.11661068	     -2.26618153	     -8.69283335	      2.78059092	      5.41391183	     -5.85943323	      0.00000000	     -9.85108140	     -0.93675277	     -1.75815003	     32.19161797	     11.98978683	     26.69664141	     89.42408219	     99.23150824	     28.72731421	      0.51194366	      1.49277750	     86.21708646	     95.47199876
      0.06666670	     -3.14124043	      1.62188520	     -4.09693661	      1.78625821	      0.88314482	     -0.16353566	      3.62167748	     -5.62981203	     -1.59146687	      2.95876068	      4.39944686	    -15.19328693	      0.00000000	      2.59747140	     -2.02615422	     -8.34746004	      2.23213250	      5.63167315	     -6.24786630	      0.00000000	     -9.93420749	     -0.97384458	     -1.62128141	     31.33153740	     11.67610727	     27.05506235	     88.70046337	     99.18958534	     28.44993914	      0.62085963	      2.10176675	     86.50854845	     95.13839070
      0.08333330	     -2.61519172	      1.64160315	     -4.03438107	      1.78651926	      0.88470557	     -0.16353111	      2.72280338	     -5.62556496	     -0.60850404	      2.36423329	      3.06220784	    -17.28448103	      0.00000000	      1.79387768	     -1.87194347	     -7.24862276	      1.76778598	      4.63358476	     -8.09657214	      0.00000000	    -10.50341532	     -0.87251944	     -1.58992485	     30.80463553	     11.37569172	     27.67466354	     87.91011394	     97.05070785	     28.12877854	      0.30126686	      3.48823083	     86.79422745	     87.71689306
